<?xml version="1.0" encoding="utf-8"?>
<!-- Generator: Adobe Illustrator 24.1.3, SVG Export Plug-In . SVG Version: 6.00 Build 0)  -->
<svg version="1.1" id="Layer_1" xmlns="http://www.w3.org/2000/svg" xmlns:xlink="http://www.w3.org/1999/xlink" x="0px" y="0px"
	 viewBox="0 0 243.1 36" style="enable-background:new 0 0 243.1 36;" xml:space="preserve">
<style type="text/css">
	.st0{fill:#FFFFFF;}
</style>
<desc>Created with Sketch.</desc>
<g id="White-horizontal">
	<g>
		<g id="MM-white" transform="translate(54.178994, 8.142857)">
			<path id="MACHINEMAX" class="st0" d="M-46.34,0.44c0.33,0.6,0.72,1.34,1.15,2.22c0.43,0.88,0.89,1.83,1.36,2.86
				c0.47,1.03,0.94,2.07,1.4,3.15c0.46,1.07,0.9,2.08,1.3,3.02c0.41-0.94,0.84-1.95,1.3-3.02c0.46-1.07,0.93-2.12,1.4-3.15
				c0.47-1.03,0.93-1.98,1.36-2.86c0.43-0.88,0.82-1.62,1.15-2.22h3.94c0.19,1.25,0.36,2.66,0.51,4.21s0.3,3.17,0.42,4.85
				s0.23,3.36,0.33,5.05c0.1,1.69,0.19,3.28,0.26,4.77h-4.22c-0.06-1.83-0.13-3.83-0.22-5.99c-0.09-2.16-0.23-4.34-0.42-6.54
				c-0.33,0.76-0.7,1.61-1.11,2.53c-0.41,0.93-0.81,1.85-1.21,2.78c-0.4,0.93-0.78,1.81-1.15,2.66c-0.37,0.84-0.68,1.57-0.94,2.17
				h-3.03c-0.26-0.6-0.57-1.32-0.94-2.17c-0.37-0.84-0.75-1.73-1.15-2.66c-0.4-0.93-0.8-1.85-1.21-2.78
				c-0.41-0.93-0.78-1.77-1.11-2.53c-0.19,2.2-0.32,4.38-0.42,6.54c-0.09,2.16-0.17,4.16-0.22,5.99h-4.22
				c0.07-1.49,0.16-3.08,0.26-4.77c0.1-1.69,0.21-3.37,0.33-5.05s0.26-3.3,0.42-4.85c0.16-1.55,0.33-2.95,0.51-4.21H-46.34z
				 M-8.46,19.31c-0.2-0.65-0.43-1.33-0.68-2.02c-0.25-0.69-0.5-1.38-0.74-2.07h-7.5c-0.24,0.69-0.49,1.38-0.74,2.07
				c-0.25,0.69-0.48,1.36-0.68,2.02h-4.5c0.72-2.03,1.41-3.91,2.05-5.64c0.65-1.72,1.28-3.35,1.9-4.87
				c0.62-1.53,1.23-2.97,1.83-4.34s1.23-2.71,1.87-4.02h4.14c0.63,1.31,1.25,2.65,1.86,4.02S-8.4,7.27-7.78,8.8s1.25,3.15,1.9,4.87
				s1.33,3.6,2.05,5.64H-8.46z M-13.66,4.71c-0.09,0.27-0.23,0.64-0.42,1.12c-0.19,0.47-0.4,1.02-0.64,1.63
				c-0.24,0.62-0.5,1.3-0.79,2.04c-0.29,0.74-0.58,1.53-0.87,2.34h5.47c-0.3-0.82-0.58-1.6-0.86-2.34
				c-0.28-0.74-0.54-1.43-0.79-2.04c-0.25-0.62-0.47-1.16-0.65-1.63C-13.4,5.36-13.54,4.98-13.66,4.71z M11.95,19.69
				c-3.13,0-5.51-0.85-7.15-2.56C3.17,15.42,2.35,13,2.35,9.86C2.35,8.3,2.6,6.9,3.1,5.68s1.18-2.26,2.05-3.1s1.91-1.48,3.11-1.92
				S10.77,0,12.18,0c0.81,0,1.55,0.06,2.22,0.18s1.25,0.25,1.75,0.41c0.5,0.15,0.92,0.31,1.25,0.48c0.33,0.16,0.57,0.29,0.72,0.38
				l-1.25,3.43c-0.59-0.31-1.28-0.57-2.07-0.79c-0.79-0.22-1.68-0.33-2.68-0.33c-0.67,0-1.32,0.11-1.96,0.33
				C9.52,4.3,8.96,4.65,8.47,5.13S7.59,6.24,7.29,7S6.85,8.69,6.85,9.78c0,0.87,0.1,1.68,0.29,2.44s0.51,1.4,0.94,1.95
				c0.43,0.54,1,0.98,1.71,1.29c0.7,0.32,1.55,0.48,2.55,0.48c0.63,0,1.19-0.04,1.69-0.11c0.5-0.07,0.94-0.16,1.33-0.26
				c0.39-0.1,0.73-0.21,1.03-0.34c0.3-0.13,0.56-0.25,0.81-0.35l1.19,3.4c-0.61,0.36-1.47,0.69-2.58,0.98
				C14.7,19.54,13.42,19.69,11.95,19.69z M37.98,0.44h4.33v18.87h-4.33V11.3h-7.27v8.01h-4.33V0.44h4.33v7.22h7.27V0.44z
				 M51.96,0.44h4.33v18.87h-4.33V0.44z M78.84,19.31c-1.24-2.16-2.58-4.29-4.03-6.4c-1.44-2.11-2.98-4.09-4.61-5.96v12.36h-4.28
				V0.44h3.53c0.61,0.6,1.29,1.33,2.03,2.21c0.74,0.87,1.49,1.8,2.26,2.79s1.53,2.02,2.29,3.08c0.76,1.06,1.47,2.08,2.14,3.06V0.44
				h4.3v18.87H78.84z M92.13,19.31V0.44h12.99V4h-8.66v3.7h7.69v3.49h-7.69v4.55h9.3v3.57H92.13z M119.26,0.44
				c0.33,0.6,0.72,1.34,1.15,2.22c0.43,0.88,0.89,1.83,1.36,2.86c0.47,1.03,0.94,2.07,1.4,3.15c0.46,1.07,0.9,2.08,1.3,3.02
				c0.41-0.94,0.84-1.95,1.3-3.02c0.46-1.07,0.93-2.12,1.4-3.15c0.47-1.03,0.93-1.98,1.36-2.86c0.43-0.88,0.82-1.62,1.15-2.22h3.94
				c0.19,1.25,0.36,2.66,0.51,4.21c0.16,1.55,0.3,3.17,0.42,4.85c0.12,1.68,0.23,3.36,0.33,5.05c0.1,1.69,0.19,3.28,0.26,4.77h-4.22
				c-0.06-1.83-0.13-3.83-0.22-5.99c-0.09-2.16-0.23-4.34-0.42-6.54c-0.33,0.76-0.7,1.61-1.11,2.53c-0.41,0.93-0.81,1.85-1.21,2.78
				c-0.4,0.93-0.78,1.81-1.15,2.66c-0.37,0.84-0.68,1.57-0.94,2.17h-3.03c-0.26-0.6-0.57-1.32-0.94-2.17
				c-0.37-0.84-0.75-1.73-1.15-2.66c-0.4-0.93-0.8-1.85-1.21-2.78c-0.41-0.93-0.78-1.77-1.11-2.53c-0.19,2.2-0.32,4.38-0.42,6.54
				c-0.09,2.16-0.17,4.16-0.22,5.99h-4.22c0.07-1.49,0.16-3.08,0.26-4.77c0.1-1.69,0.21-3.37,0.33-5.05
				c0.12-1.68,0.26-3.3,0.42-4.85s0.33-2.95,0.51-4.21H119.26z M157.14,19.31c-0.2-0.65-0.43-1.33-0.68-2.02s-0.5-1.38-0.74-2.07
				h-7.5c-0.24,0.69-0.49,1.38-0.74,2.07s-0.48,1.36-0.68,2.02h-4.5c0.72-2.03,1.41-3.91,2.05-5.64s1.28-3.35,1.9-4.87
				c0.62-1.53,1.23-2.97,1.83-4.34c0.6-1.37,1.23-2.71,1.87-4.02h4.14c0.63,1.31,1.25,2.65,1.86,4.02s1.23,2.82,1.85,4.34
				c0.62,1.53,1.25,3.15,1.9,4.87c0.65,1.72,1.33,3.6,2.05,5.64H157.14z M151.95,4.71c-0.09,0.27-0.23,0.64-0.42,1.12
				c-0.19,0.47-0.4,1.02-0.64,1.63c-0.24,0.62-0.5,1.3-0.79,2.04c-0.29,0.74-0.58,1.53-0.87,2.34h5.47c-0.3-0.82-0.58-1.6-0.86-2.34
				s-0.54-1.43-0.79-2.04s-0.47-1.16-0.65-1.63C152.21,5.36,152.06,4.98,151.95,4.71z M181.56,19.31c-0.54-1.05-1.12-2.12-1.76-3.2
				s-1.37-2.18-2.21-3.31c-0.26,0.33-0.59,0.78-0.99,1.36c-0.4,0.58-0.8,1.2-1.19,1.85c-0.4,0.65-0.77,1.28-1.12,1.88
				c-0.35,0.6-0.61,1.07-0.78,1.42h-4.94c0.81-1.47,1.76-3.01,2.85-4.63s2.29-3.33,3.62-5.15l-6.19-9.1h5.25l3.75,5.88l3.66-5.88
				h4.94l-6.11,9.15c1.55,1.98,2.86,3.81,3.91,5.49s1.89,3.09,2.5,4.23H181.56z"/>
		</g>
	</g>
</g>
</svg>
